Coordinates
version=1
nRows=11
nColumns=63
inDegrees=yes

Units are S.I. units (second, meters, Newtons, ...)
If the header above contains a line with 'inDegrees', this indicates whether rotational values are in degrees (yes) or radians (no).

endheader
time	pelvis_tilt	pelvis_list	pelvis_rotation	pelvis_tx	pelvis_ty	pelvis_tz	hip_flexion_r	hip_adduction_r	hip_rotation_r	knee_angle_r	knee_angle_r_beta	ankle_angle_r	subtalar_angle_r	mtp_angle_r	hip_flexion_l	hip_adduction_l	hip_rotation_l	knee_angle_l	knee_angle_l_beta	ankle_angle_l	subtalar_angle_l	mtp_angle_l	L5_S1_Flex_Ext	L5_S1_Lat_Bending	L5_S1_axial_rotation	L4_L5_Flex_Ext	L4_L5_Lat_Bending	L4_L5_axial_rotation	L3_L4_Flex_Ext	L3_L4_Lat_Bending	L3_L4_axial_rotation	L2_L3_Flex_Ext	L2_L3_Lat_Bending	L2_L3_axial_rotation	L1_L2_Flex_Ext	L1_L2_Lat_Bending	L1_L2_axial_rotation	L1_T12_Flex_Ext	L1_T12_Lat_Bending	L1_T12_axial_rotation	Abs_r3	Abs_r2	Abs_r1	Abs_t1	Abs_t2	neck_flexion	neck_bending	neck_rotation	arm_flex_r	arm_add_r	arm_rot_r	elbow_flex_r	pro_sup_r	wrist_flex_r	wrist_dev_r	arm_flex_l	arm_add_l	arm_rot_l	elbow_flex_l	pro_sup_l	wrist_flex_l	wrist_dev_l
0.000000	2.066430	-2.888118	99.901312	0.188094	1.032677	0.157228	2.764822	0.652763	-27.000088	13.030626	0.227427	31.040976	18.308964	0.000000	4.589899	-1.549593	-1.187367	12.265469	0.214073	29.987554	4.084597	0.000000	0.228313	0.267476	-1.147521	0.424000	0.355744	-1.219241	0.375096	0.650342	-1.219241	0.260939	0.650342	-1.004081	0.212012	0.545438	-0.932361	0.130458	0.414321	-0.860641	1.630818	3.025747	-6.382167	0.000000	0.000000	22.472981	6.535297	-0.430801	23.536634	-23.771608	57.323601	73.256636	39.730515	-10.116161	3.710169	30.009022	-9.253487	56.201547	59.268938	84.415589	-7.192631	-1.422443
0.017857	2.156327	-2.911154	99.572019	0.188050	1.032505	0.157343	3.045457	0.645087	-26.896842	13.336699	0.232769	31.020185	18.249163	0.000000	4.389310	-1.646496	-1.893713	12.016573	0.209729	29.995765	4.115848	0.000000	0.231405	0.290079	-1.096512	0.429742	0.385805	-1.165044	0.380175	0.705298	-1.165044	0.264473	0.705298	-0.959448	0.214883	0.591529	-0.890916	0.132225	0.449332	-0.822384	1.652903	3.281432	-6.098468	0.000000	0.000000	22.673490	6.614203	-0.098799	24.246744	-23.654888	55.830639	72.545954	50.664455	-2.711240	4.413655	29.872639	-9.148491	54.878388	59.641413	82.384019	-4.733522	-0.607819
0.035714	2.230850	-2.931896	99.372750	0.188089	1.032365	0.157477	3.251829	0.657220	-26.842146	13.550536	0.236501	30.987184	18.191848	0.000000	4.260482	-1.749688	-2.543733	11.854908	0.206907	30.023341	4.325341	0.000000	0.233963	0.306344	-1.064536	0.434492	0.407437	-1.131069	0.384377	0.744844	-1.131069	0.267396	0.744844	-0.931469	0.217258	0.624696	-0.864935	0.133686	0.474526	-0.798402	1.671173	3.465421	-5.920629	0.000000	0.000000	22.840515	6.699649	0.140482	24.844787	-23.438191	54.418475	71.867703	59.880750	3.992370	5.262450	29.805072	-9.092360	53.834578	59.951023	81.003500	-2.958772	-0.063279
0.053571	2.291097	-2.949374	99.291412	0.188197	1.032257	0.157618	3.388552	0.687298	-26.831456	13.679913	0.238760	30.944633	18.136903	0.000000	4.194938	-1.857881	-3.137869	11.772575	0.205470	30.067826	4.690274	0.000000	0.236022	0.316870	-1.049989	0.438317	0.421437	-1.115614	0.387761	0.770438	-1.115614	0.269750	0.770438	-0.918741	0.219170	0.646162	-0.853116	0.134863	0.490832	-0.787492	1.685883	3.584498	-5.839725	0.000000	0.000000	22.975248	6.790736	0.296155	25.338163	-23.139236	53.087798	71.230101	67.518623	10.007125	6.211290	29.797638	-9.081628	53.040506	60.210236	80.192687	-1.784397	0.249824
0.071429	2.338163	-2.962619	99.315912	0.188362	1.032180	0.157753	3.460245	0.733452	-26.860231	13.732603	0.239679	30.895194	18.084215	0.000000	4.184200	-1.969787	-3.676562	11.761678	0.205280	30.126766	5.187843	0.000000	0.237619	0.322258	-1.051267	0.441282	0.428603	-1.116971	0.390384	0.783538	-1.116971	0.271575	0.783538	-0.919859	0.220653	0.657149	-0.854154	0.135775	0.499178	-0.788450	1.697288	3.645447	-5.846832	0.000000	0.000000	23.078885	6.886567	0.377337	25.734274	-22.775743	51.839300	70.641362	73.717298	15.345482	7.214916	29.841656	-9.112832	52.466561	60.431518	79.870236	-1.126414	0.370140
0.089286	2.373145	-2.970663	99.434160	0.188571	1.032134	0.157869	3.471523	0.793818	-26.923928	13.716381	0.239396	30.841529	18.033669	0.000000	4.219790	-2.084121	-4.160254	11.814317	0.206199	30.197705	5.795246	0.000000	0.238789	0.323107	-1.066764	0.443455	0.429732	-1.133437	0.392306	0.785602	-1.133437	0.272912	0.785602	-0.933419	0.221739	0.658880	-0.866746	0.136444	0.500493	-0.800073	1.705644	3.655051	-5.933024	0.000000	0.000000	23.152619	6.986243	0.393142	26.040521	-22.365431	50.673670	70.109703	78.615998	20.019896	8.228067	29.928444	-9.182508	52.083132	60.627338	79.954801	-0.900840	0.336315
0.107143	2.397139	-2.972537	99.634063	0.188811	1.032119	0.157953	3.427004	0.866527	-27.018005	13.639020	0.238046	30.786298	17.985150	0.000000	4.293230	-2.199594	-4.589388	11.922597	0.208089	30.278186	6.489678	0.000000	0.239567	0.320017	-1.094877	0.444901	0.425622	-1.163307	0.393585	0.778089	-1.163307	0.273802	0.778089	-0.958017	0.222462	0.652578	-0.889587	0.136889	0.495706	-0.821158	1.711206	3.620094	-6.089376	0.000000	0.000000	23.197645	7.088865	0.352683	26.264304	-21.926019	49.591599	69.643341	82.353945	24.042825	9.205481	30.049318	-9.287189	51.860607	60.810164	80.365037	-1.023693	0.186999
0.125000	2.411241	-2.967271	99.903528	0.189069	1.032134	0.157993	3.331302	0.949714	-27.137918	13.508296	0.235764	30.732164	17.938545	0.000000	4.396041	-2.314920	-4.964405	12.078618	0.210812	30.365755	7.248337	0.000000	0.239991	0.313587	-1.133999	0.445687	0.417071	-1.204874	0.394281	0.762455	-1.204874	0.274285	0.762455	-0.992250	0.222855	0.639467	-0.921375	0.137131	0.485746	-0.850500	1.714230	3.547358	-6.306965	0.000000	0.000000	23.215157	7.193535	0.265077	26.413026	-21.475229	48.593777	69.250490	85.070363	27.426724	10.101898	30.195598	-9.423413	51.769376	60.992462	81.019598	-1.410989	-0.039162
0.142857	2.416547	-2.953898	100.230465	0.189332	1.032179	0.157977	3.189037	1.041512	-27.279127	13.331982	0.232687	30.681789	17.893739	0.000000	4.519748	-2.428812	-5.285747	12.274484	0.214230	30.457956	8.048420	0.000000	0.240094	0.304417	-1.182528	0.445879	0.404875	-1.256436	0.394451	0.740160	-1.256436	0.274404	0.740160	-1.034712	0.222952	0.620768	-0.960804	0.137190	0.471542	-0.886896	1.714970	3.443628	-6.576864	0.000000	0.000000	23.206349	7.299353	0.139438	26.494086	-21.030779	47.680894	68.939367	86.904475	30.184049	10.872056	30.358601	-9.587715	51.779829	61.186701	81.837140	-1.978746	-0.303518
0.160714	2.414154	-2.931449	100.602780	0.189588	1.032253	0.157890	3.004823	1.140054	-27.437087	13.117853	0.228950	30.637833	17.850617	0.000000	4.655871	-2.539984	-5.553856	12.502296	0.218206	30.552334	8.867124	0.000000	0.239914	0.293107	-1.238857	0.445544	0.389833	-1.316285	0.394155	0.712661	-1.316285	0.274198	0.712661	-1.084000	0.222784	0.597704	-1.006571	0.137087	0.454023	-0.929143	1.713682	3.315687	-6.890150	0.000000	0.000000	23.172415	7.405423	-0.015120	26.514886	-20.610389	46.853642	68.718188	87.995504	32.327258	11.470694	30.529646	-9.776631	51.862353	61.405348	82.736317	-2.642980	-0.567423
0.178571	2.405158	-2.898954	101.008382	0.189823	1.032357	0.157722	2.783277	1.243474	-27.607257	12.873682	0.224688	30.602958	17.809066	0.000000	4.795933	-2.647147	-5.769174	12.754157	0.222602	30.646432	9.681644	0.000000	0.239485	0.280257	-1.301382	0.444748	0.372741	-1.382719	0.393451	0.681416	-1.382719	0.273708	0.681416	-1.138709	0.222386	0.571499	-1.057373	0.136842	0.434117	-0.976037	1.710621	3.170318	-7.237897	0.000000	0.000000	23.114549	7.510844	-0.189481	26.482828	-20.231780	46.112709	68.595169	88.482673	33.868805	11.852552	30.700049	-9.986695	51.987337	61.660871	83.635784	-3.319709	-0.792228
